#!OML:ASF I:\Actors\actors\Patient Classification 1\Patient 1\Session 1\Subject1.ASF
:FULLY-SPECIFIED
:DEGREES
727
root -1.11544 17.6603 8.25423 12.0111 19.6972 -8.42015
lowerback 10.6019 0.99952 3.58887
upperback -5.79856 2.09711 1.39024
thorax -12.231 0.779717 -0.941521
lowerneck -9.08744 -11.6276 -9.40969
upperneck 30.0755 -19.1987 13.73
head 14.1797 -7.95148 3.95662
rclavicle -2.58917e-014 1.98785e-015
rhumerus -7.90202 37.9411 -86.9719
rradius 78.2547
rwrist 5.09316
rhand -4.06695 -26.1036
rfingers 7.12502
rthumb 21.6897 -54.9086
lclavicle -2.58917e-014 1.98785e-015
lhumerus -5.00174 -33.7883 94.4961
lradius 73.768
lwrist 37.8404
lhand -28.5012 -31.2265
lfingers 7.12502
lthumb -1.86995 -1.25495
rfemur -6.58629 26.9996 27.7667
rtibia -1.07027
rfoot -14.7071 -35.4529
rtoes 18.0052
lfemur -11.7323 -31.082 -2.05875
ltibia 1.04174
lfoot -11.3529 38.1483
ltoes 0.262933
728
root -1.10811 17.6571 8.27448 12.0677 19.4282 -8.3674
lowerback 10.5023 0.877245 3.45309
upperback -5.79341 1.90395 1.38631
thorax -12.1752 0.699946 -0.82747
lowerneck -9.37291 -11.4679 -9.29964
upperneck 30.0475 -18.977 13.7387
head 14.1814 -7.83127 3.96887
rclavicle -3.926e-014 -1.94809e-014
rhumerus -12.0108 37.5021 -89.0198
rradius 78.1535
rwrist 4.84658
rhand -3.00834 -25.9785
rfingers 7.12502
rthumb 22.706 -54.6625
lclavicle -3.926e-014 -1.94809e-014
lhumerus -8.48492 -36.1307 96.4766
lradius 72.9842
lwrist 37.9732
lhand -29.0002 -30.9552
lfingers 7.12502
lthumb -2.35188 -0.98846
rfemur -6.55614 27.0911 27.742
rtibia -1.03776
rfoot -14.5687 -35.4499
rtoes 17.577
lfemur -11.5006 -31.2524 -2.19808
ltibia 0.951974
lfoot -11.7191 38.4199
ltoes 0.718614
729
root -1.0999 17.6544 8.29748 12.0947 19.1499 -8.3016
lowerback 10.4139 0.727195 3.30471
upperback -5.77638 1.67249 1.39066
thorax -12.1137 0.603345 -0.690103
lowerneck -9.67767 -11.2909 -9.18194
upperneck 29.9725 -18.7216 13.7419
head 14.1594 -7.69776 3.98185
rclavicle -1.33683e-014 5.28767e-014
rhumerus -16.2713 36.8299 -90.96
rradius 78.1494
rwrist 4.52309
rhand -1.44856 -25.8707
rfingers 7.12502
rthumb 24.2022 -54.3636
lclavicle -1.33683e-014 5.28767e-014
lhumerus -12.1322 -38.0392 98.787
lradius 72.4204
lwrist 38.3966
lhand -29.4098 -30.6006
lfingers 7.12502
lthumb -2.74745 -0.638549
rfemur -6.4911 27.1167 27.7211
rtibia -0.993097
rfoot -14.3881 -35.3717
rtoes 17.0779
lfemur -11.2027 -31.4171 -2.39425
ltibia 0.855606
lfoot -12.1036 38.6823
ltoes 1.17102
730
root -1.09114 17.6523 8.32243 12.0952 18.855 -8.22742
lowerback 10.3373 0.555005 3.1529
upperback -5.75225 1.41198 1.40246
thorax -12.0512 0.493346 -0.537437
lowerneck -9.98043 -11.0947 -9.03108
upperneck 29.8444 -18.4278 13.7197
head 14.0999 -7.54968 3.98529
rclavicle -1.44119e-014 -6.75868e-015
rhumerus -20.5888 35.6297 -92.7862
rradius 78.2643
rwrist 4.4324
rhand 0.746988 -25.7564
rfingers 7.12502
rthumb 26.3057 -53.9524
lclavicle -1.44119e-014 -6.75868e-015
lhumerus -15.8253 -39.5277 101.316
lradius 72.0416
lwrist 39.0631
lhand -29.7296 -30.1528
lfingers 7.12502
lthumb -3.05629 -0.194925
rfemur -6.40186 27.0408 27.7023
rtibia -0.932837
rfoot -14.1693 -35.1632
rtoes 16.5225
lfemur -10.8515 -31.5414 -2.64099
ltibia 0.762912
lfoot -12.4564 38.9166
ltoes 1.53594
731
root -1.08229 17.6508 8.34836 12.079 18.539 -8.15291
lowerback 10.263 0.371146 3.00817
upperback -5.73256 1.13806 1.42011
thorax -11.9941 0.376317 -0.380196
lowerneck -10.2483 -10.8826 -8.86939
upperneck 29.6798 -18.1077 13.6941
head 14.0116 -7.3931 3.9915
rclavicle -3.47376e-014 -7.95139e-015
rhumerus -24.7781 34.1349 -94.2755
rradius 78.5053
rwrist 4.47721
rhand 3.17897 -25.727
rfingers 7.12502
rthumb 28.6316 -53.5535
lclavicle -3.47376e-014 -7.95139e-015
lhumerus -19.4461 -40.7085 103.959
lradius 71.7843
lwrist 39.6469
lhand -29.8866 -29.5348
lfingers 7.12502
lthumb -3.2079 0.420784
rfemur -6.30584 26.8636 27.6838
rtibia -0.856174
rfoot -13.9259 -34.8107
rtoes 15.9437
lfemur -10.4761 -31.598 -2.91629
ltibia 0.686897
lfoot -12.7377 39.1077
ltoes 1.75762
732
root -1.07388 17.65 8.37421 12.0613 18.1926 -8.08631
lowerback 10.1765 0.188507 2.87718
upperback -5.73111 0.868784 1.4414
thorax -11.9487 0.260133 -0.228044
lowerneck -10.448 -10.6593 -8.72764
upperneck 29.4953 -17.7759 13.695
head 13.905 -7.23507 4.01673
rclavicle 3.67752e-014 1.70955e-014
rhumerus -28.7573 32.3553 -95.3849
rradius 78.8958
rwrist 4.65296
rhand 5.56512 -25.8858
rfingers 7.12502
rthumb 30.9088 -53.3046
lclavicle 3.67752e-014 1.70955e-014
lhumerus -22.9209 -41.7847 106.658
lradius 71.6031
lwrist 39.7525
lhand -29.8768 -28.6153
lfingers 7.12502
lthumb -3.19844 1.34046
rfemur -6.22785 26.6129 27.6626
rtibia -0.759982
rfoot -13.6737 -34.329
rtoes 15.3714
lfemur -10.1099 -31.5636 -3.19253
ltibia 0.639495
lfoot -12.9536 39.2465
ltoes 1.86762
733
root -1.06642 17.6496 8.39894 12.0564 17.8025 -8.03236
lowerback 10.0614 0.0166746 2.76034
upperback -5.75431 0.616621 1.466
thorax -11.9121 0.15078 -0.0840561
lowerneck -10.5793 -10.4279 -8.59232
upperneck 29.3126 -17.4374 13.7051
head 13.7864 -7.07712 4.05123
rclavicle -4.12478e-015 0
rhumerus -32.3952 30.228 -96.0331
rradius 79.4633
rwrist 5.1455
rhand 7.90391 -26.184
rfingers 7.12502
rthumb 33.1357 -53.1554
lclavicle -4.12478e-015 0
lhumerus -26.1962 -42.9296 109.375
lradius 71.4786
lwrist 38.9987
lhand -29.6535 -27.2174
lfingers 7.12502
lthumb -2.98281 2.74145
rfemur -6.19363 26.322 27.6336
rtibia -0.638117
rfoot -13.4175 -33.7392
rtoes 14.798
lfemur -9.7778 -31.4405 -3.4473
ltibia 0.627233
lfoot -13.1558 39.3461
ltoes 1.96227
734
root -1.06021 17.6496 8.42186 12.0644 17.3508 -7.99256
lowerback 9.90812 -0.141597 2.65223
upperback -5.79713 0.384007 1.49529
thorax -11.8729 0.0500972 0.0556119
lowerneck -10.6747 -10.1942 -8.52747
upperneck 29.1931 -17.1044 13.7493
head 13.7015 -6.92428 4.11321
rclavicle -4.27387e-014 2.98177e-014
rhumerus -35.6163 27.8027 -96.1879
rradius 80.2389
rwrist 5.88984
rhand 10.0849 -26.6429
rfingers 7.12502
rthumb 35.2068 -53.1505
lclavicle -4.27387e-014 2.98177e-014
lhumerus -29.2275 -44.2241 112.066
lradius 71.4226
lwrist 37.2243
lhand -29.0738 -25.3048
lfingers 7.12502
lthumb -2.42298 4.66118
rfemur -6.20992 26.0066 27.597
rtibia -0.484914
rfoot -13.1465 -33.0476
rtoes 14.1926
lfemur -9.47211 -31.2546 -3.67688
ltibia 0.643697
lfoot -13.414 39.4385
ltoes 2.15972
735
root -1.05685 17.6505 8.44431 12.0406 16.8161 -7.95775
lowerback 9.74039 -0.289427 2.50329
upperback -5.83691 0.159931 1.53376
thorax -11.82 -0.0428402 0.22554
lowerneck -10.7511 -9.94898 -8.46196
upperneck 29.1336 -16.756 13.7638
head 13.6328 -6.76644 4.16848
rclavicle -1.31695e-014 -1.07344e-014
rhumerus -38.3824 25.3062 -95.8756
rradius 81.2437
rwrist 6.59798
rhand 11.5503 -27.5254
rfingers 7.12502
rthumb 36.5952 -53.6935
lclavicle -1.31695e-014 -1.07344e-014
lhumerus -31.952 -45.6405 114.64
lradius 71.477
lwrist 34.4684
lhand -27.9647 -22.9389
lfingers 7.12502
lthumb -1.35186 7.03661
rfemur -6.19958 25.7409 27.5817
rtibia -0.310156
rfoot -12.8887 -32.3126
rtoes 13.6035
lfemur -9.08873 -31.0199 -3.9279
ltibia 0.642061
lfoot -13.7457 39.5375
ltoes 2.47604
736
root -1.05604 17.652 8.46553 11.9778 16.1796 -7.91312
lowerback 9.56812 -0.434247 2.30131
upperback -5.86514 -0.0677604 1.57562
thorax -11.7493 -0.133229 0.428449
lowerneck -10.8363 -9.67768 -8.34313
upperneck 29.1472 -16.3731 13.7168
head 13.58 -6.59135 4.19824
rclavicle 2.28602e-015 -3.81667e-014
rhumerus -40.6476 22.8592 -95.1221
rradius 82.4609
rwrist 7.28348
rhand 12.4911 -28.6642
rfingers 7.12502
rthumb 37.485 -54.6017
lclavicle 2.28602e-015 -3.81667e-014
lhumerus -34.2949 -47.1168 116.985
lradius 71.6766
lwrist 30.9027
lhand -26.274 -20.3548
lfingers 7.12502
lthumb 0.281071 9.62475
rfemur -6.16025 25.4924 27.5725
rtibia -0.103601
rfoot -12.6354 -31.4924
rtoes 13.0071
lfemur -8.60005 -30.7518 -4.23251
ltibia 0.610183
lfoot -14.1375 39.6648
ltoes 2.87885
737
root -1.05625 17.6528 8.48402 11.8915 15.4211 -7.84495
lowerback 9.39217 -0.583128 2.06144
upperback -5.88662 -0.307179 1.60892
thorax -11.6664 -0.226965 0.64435
lowerneck -10.9525 -9.3699 -8.16311
upperneck 29.2569 -15.9439 13.6041
head 13.5557 -6.39181 4.20123
rclavicle 2.28602e-015 -5.24792e-014
rhumerus -42.4009 20.6141 -94.0207
rradius 83.8255
rwrist 7.88223
rhand 12.8057 -30.0351
rfingers 7.12502
rthumb 37.7823 -55.8932
lclavicle 2.28602e-015 -5.24792e-014
lhumerus -36.1622 -48.5721 118.97
lradius 72.0098
lwrist 26.6419
lhand -23.9808 -17.8524
lfingers 7.12502
lthumb 2.49586 12.1128
rfemur -6.12832 25.1899 27.5322
rtibia 0.148535
rfoot -12.3629 -30.5107
rtoes 12.3357
lfemur -8.02973 -30.4575 -4.60771
ltibia 0.564042
lfoot -14.5789 39.8368
ltoes 3.36917
